<svg width="30" height="30" viewBox="0 0 30 30" fill="none" xmlns="http://www.w3.org/2000/svg">
<path fill-rule="evenodd" clip-rule="evenodd" d="M9.49999 8.66666C9.03975 8.66666 8.66666 9.03976 8.66666 9.5V13.6667C8.66666 14.1269 9.03975 14.5 9.49999 14.5H13.6667C14.1269 14.5 14.5 14.1269 14.5 13.6667V9.5C14.5 9.03976 14.1269 8.66666 13.6667 8.66666H9.49999ZM17 8.66666C16.5398 8.66666 16.1667 9.03976 16.1667 9.5V13.6667C16.1667 14.1269 16.5398 14.5 17 14.5H21.1667C21.6269 14.5 22 14.1269 22 13.6667V9.5C22 9.03976 21.6269 8.66666 21.1667 8.66666H17ZM16.1667 17C16.1667 16.5398 16.5398 16.1667 17 16.1667H21.1667C21.6269 16.1667 22 16.5398 22 17V21.1667C22 21.6269 21.6269 22 21.1667 22H17C16.5398 22 16.1667 21.6269 16.1667 21.1667V17ZM9.5 16.1667C9.03976 16.1667 8.66667 16.5398 8.66667 17V21.1667C8.66667 21.6269 9.03976 22 9.5 22H13.6667C14.1269 22 14.5 21.6269 14.5 21.1667V17C14.5 16.5398 14.1269 16.1667 13.6667 16.1667H9.5Z" fill="url(#paint0_linear_145_112)"/>
<g filter="url(#filter0_b_145_112)">
<path fill-rule="evenodd" clip-rule="evenodd" d="M7.83333 7C7.3731 7 7 7.3731 7 7.83333V12C7 12.4602 7.3731 12.8333 7.83333 12.8333H12C12.4602 12.8333 12.8333 12.4602 12.8333 12V7.83333C12.8333 7.3731 12.4602 7 12 7H7.83333ZM15.3333 7C14.8731 7 14.5 7.3731 14.5 7.83333V12C14.5 12.4602 14.8731 12.8333 15.3333 12.8333H19.5C19.9602 12.8333 20.3333 12.4602 20.3333 12V7.83333C20.3333 7.3731 19.9602 7 19.5 7H15.3333ZM14.5 15.3333C14.5 14.8731 14.8731 14.5 15.3333 14.5H19.5C19.9602 14.5 20.3333 14.8731 20.3333 15.3333V19.5C20.3333 19.9602 19.9602 20.3333 19.5 20.3333H15.3333C14.8731 20.3333 14.5 19.9602 14.5 19.5V15.3333ZM7.83333 14.5C7.3731 14.5 7 14.8731 7 15.3333V19.5C7 19.9602 7.3731 20.3333 7.83333 20.3333H12C12.4602 20.3333 12.8333 19.9602 12.8333 19.5V15.3333C12.8333 14.8731 12.4602 14.5 12 14.5H7.83333Z" fill="url(#paint1_linear_145_112)" fill-opacity="0.8"/>
<path d="M7.1 7.83333C7.1 7.42833 7.42832 7.1 7.83333 7.1V6.9C7.31787 6.9 6.9 7.31787 6.9 7.83333H7.1ZM7.1 12V7.83333H6.9V12H7.1ZM7.83333 12.7333C7.42833 12.7333 7.1 12.405 7.1 12H6.9C6.9 12.5155 7.31787 12.9333 7.83333 12.9333V12.7333ZM12 12.7333H7.83333V12.9333H12V12.7333ZM12.7333 12C12.7333 12.405 12.405 12.7333 12 12.7333V12.9333C12.5155 12.9333 12.9333 12.5155 12.9333 12H12.7333ZM12.7333 7.83333V12H12.9333V7.83333H12.7333ZM12 7.1C12.405 7.1 12.7333 7.42832 12.7333 7.83333H12.9333C12.9333 7.31787 12.5155 6.9 12 6.9V7.1ZM7.83333 7.1H12V6.9H7.83333V7.1ZM14.6 7.83333C14.6 7.42833 14.9283 7.1 15.3333 7.1V6.9C14.8179 6.9 14.4 7.31787 14.4 7.83333H14.6ZM14.6 12V7.83333H14.4V12H14.6ZM15.3333 12.7333C14.9283 12.7333 14.6 12.405 14.6 12H14.4C14.4 12.5155 14.8179 12.9333 15.3333 12.9333V12.7333ZM19.5 12.7333H15.3333V12.9333H19.5V12.7333ZM20.2333 12C20.2333 12.405 19.905 12.7333 19.5 12.7333V12.9333C20.0155 12.9333 20.4333 12.5155 20.4333 12H20.2333ZM20.2333 7.83333V12H20.4333V7.83333H20.2333ZM19.5 7.1C19.905 7.1 20.2333 7.42832 20.2333 7.83333H20.4333C20.4333 7.31787 20.0155 6.9 19.5 6.9V7.1ZM15.3333 7.1H19.5V6.9H15.3333V7.1ZM15.3333 14.4C14.8179 14.4 14.4 14.8179 14.4 15.3333H14.6C14.6 14.9283 14.9283 14.6 15.3333 14.6V14.4ZM19.5 14.4H15.3333V14.6H19.5V14.4ZM20.4333 15.3333C20.4333 14.8179 20.0155 14.4 19.5 14.4V14.6C19.905 14.6 20.2333 14.9283 20.2333 15.3333H20.4333ZM20.4333 19.5V15.3333H20.2333V19.5H20.4333ZM19.5 20.4333C20.0155 20.4333 20.4333 20.0155 20.4333 19.5H20.2333C20.2333 19.905 19.905 20.2333 19.5 20.2333V20.4333ZM15.3333 20.4333H19.5V20.2333H15.3333V20.4333ZM14.4 19.5C14.4 20.0155 14.8179 20.4333 15.3333 20.4333V20.2333C14.9283 20.2333 14.6 19.905 14.6 19.5H14.4ZM14.4 15.3333V19.5H14.6V15.3333H14.4ZM7.1 15.3333C7.1 14.9283 7.42832 14.6 7.83333 14.6V14.4C7.31787 14.4 6.9 14.8179 6.9 15.3333H7.1ZM7.1 19.5V15.3333H6.9V19.5H7.1ZM7.83333 20.2333C7.42833 20.2333 7.1 19.905 7.1 19.5H6.9C6.9 20.0155 7.31787 20.4333 7.83333 20.4333V20.2333ZM12 20.2333H7.83333V20.4333H12V20.2333ZM12.7333 19.5C12.7333 19.905 12.405 20.2333 12 20.2333V20.4333C12.5155 20.4333 12.9333 20.0155 12.9333 19.5H12.7333ZM12.7333 15.3333V19.5H12.9333V15.3333H12.7333ZM12 14.6C12.405 14.6 12.7333 14.9283 12.7333 15.3333H12.9333C12.9333 14.8179 12.5155 14.4 12 14.4V14.6ZM7.83333 14.6H12V14.4H7.83333V14.6Z" fill="white"/>
</g>
<defs>
<filter id="filter0_b_145_112" x="5.23333" y="5.23333" width="16.8667" height="16.8667" filterUnits="userSpaceOnUse" color-interpolation-filters="sRGB">
<feFlood flood-opacity="0" result="BackgroundImageFix"/>
<feGaussianBlur in="BackgroundImageFix" stdDeviation="0.833333"/>
<feComposite in2="SourceAlpha" operator="in" result="effect1_backgroundBlur_145_112"/>
<feBlend mode="normal" in="SourceGraphic" in2="effect1_backgroundBlur_145_112" result="shape"/>
</filter>
<linearGradient id="paint0_linear_145_112" x1="11.5833" y1="22" x2="11.5833" y2="16.1667" gradientUnits="userSpaceOnUse">
<stop stop-color="#0538FF"/>
<stop offset="1" stop-color="#5799F7"/>
</linearGradient>
<linearGradient id="paint1_linear_145_112" x1="9.91667" y1="20.3333" x2="9.91667" y2="14.5" gradientUnits="userSpaceOnUse">
<stop stop-color="#AEBEFF" stop-opacity="0.7"/>
<stop offset="1" stop-color="#C8DFFF" stop-opacity="0.31"/>
</linearGradient>
</defs>
</svg>
