<svg width="30" height="30" viewBox="0 0 30 30" fill="none" xmlns="http://www.w3.org/2000/svg">
<rect x="15" y="12" width="11" height="11" rx="1" fill="url(#paint0_linear_145_215)"/>
<g filter="url(#filter0_b_145_215)">
<rect x="6" y="5" width="17" height="18" rx="2" fill="url(#paint1_linear_145_215)" fill-opacity="0.7"/>
<rect x="6" y="5" width="17" height="18" rx="2" stroke="white" stroke-width="0.270628"/>
</g>
<path fill-rule="evenodd" clip-rule="evenodd" d="M18.9817 14.7407C18.8574 17.011 17.0494 18.8329 14.785 18.9791L14.7713 16.1976C15.5119 16.0768 16.0945 15.4856 16.2023 14.7407H18.9817ZM18.9817 14.241C18.8566 11.9559 17.0258 10.1251 14.7408 10L14.7545 12.7815C15.5031 12.896 16.0937 13.4905 16.2023 14.241H18.9817ZM12.7795 14.241C12.8894 13.4813 13.4931 12.8815 14.2547 12.7775L14.241 10C11.9559 10.1251 10.1251 11.9559 10 14.241H12.7795ZM10 14.7407C10.1259 17.0405 11.9796 18.8802 14.2852 18.9839L14.2716 16.2064C13.5021 16.109 12.8902 15.506 12.7795 14.7407H10Z" fill="url(#paint2_linear_145_215)"/>
<defs>
<filter id="filter0_b_145_215" x="4.24092" y="3.24092" width="20.5182" height="21.5182" filterUnits="userSpaceOnUse" color-interpolation-filters="sRGB">
<feFlood flood-opacity="0" result="BackgroundImageFix"/>
<feGaussianBlur in="BackgroundImageFix" stdDeviation="0.811884"/>
<feComposite in2="SourceAlpha" operator="in" result="effect1_backgroundBlur_145_215"/>
<feBlend mode="normal" in="SourceGraphic" in2="effect1_backgroundBlur_145_215" result="shape"/>
</filter>
<linearGradient id="paint0_linear_145_215" x1="20.5" y1="23" x2="20.5" y2="12" gradientUnits="userSpaceOnUse">
<stop stop-color="#0538FF"/>
<stop offset="1" stop-color="#5799F7"/>
</linearGradient>
<linearGradient id="paint1_linear_145_215" x1="22.3625" y1="21.56" x2="4.10269" y2="15.654" gradientUnits="userSpaceOnUse">
<stop stop-color="#97ACFF" stop-opacity="0.34"/>
<stop offset="1" stop-color="#BDD9FF" stop-opacity="0.72"/>
</linearGradient>
<linearGradient id="paint2_linear_145_215" x1="11" y1="10.5" x2="17.5" y2="18" gradientUnits="userSpaceOnUse">
<stop stop-color="#346FFB"/>
<stop offset="1" stop-color="white"/>
</linearGradient>
</defs>
</svg>
