<svg width="30" height="30" viewBox="0 0 30 30" fill="none" xmlns="http://www.w3.org/2000/svg">
<rect x="15" y="15" width="11" height="10" rx="1" fill="url(#paint0_linear_145_239)"/>
<g filter="url(#filter0_b_145_239)">
<rect x="5" y="8" width="16" height="17" rx="2" fill="url(#paint1_linear_145_239)" fill-opacity="0.7"/>
<rect x="5" y="8" width="16" height="17" rx="2" stroke="white" stroke-width="0.270628"/>
</g>
<path d="M12.6175 15.6175H9.92807C8.86496 15.6175 8 14.7526 8 13.6895V11.0001H10.6895C11.7526 11.0001 12.6175 11.8651 12.6175 12.9282V15.6175ZM8.64277 11.6428V13.6896C8.64277 14.3983 9.21933 14.9749 9.92807 14.9749H11.9749V12.9281C11.9749 12.2193 11.3983 11.6428 10.6896 11.6428H8.64277ZM15.8169 15.6175H13.1274V12.9281C13.1274 11.865 13.9924 11 15.0555 11H17.745V13.6895C17.745 14.7527 16.88 15.6175 15.8169 15.6175ZM13.7701 14.9749H15.8169C16.5256 14.9749 17.1022 14.3983 17.1022 13.6896V11.6428H15.0555C14.3467 11.6428 13.7702 12.2193 13.7702 12.9281V14.9749H13.7701ZM10.6895 20.7135H8V18.0242C8 16.961 8.86496 16.0961 9.92807 16.0961H12.6175V18.7856C12.6175 19.8486 11.7526 20.7135 10.6895 20.7135ZM8.64277 20.0709H10.6895C11.3982 20.0709 11.9748 19.4943 11.9748 18.7856V16.7389H9.92807C9.21933 16.7389 8.64277 17.3154 8.64277 18.0242V20.0709ZM17.745 20.7135H15.0555C13.9924 20.7135 13.1274 19.8486 13.1274 18.7854V16.0961H15.8169C16.88 16.0961 17.745 16.961 17.745 18.0242V20.7135ZM13.7701 16.7389V18.7856C13.7701 19.4943 14.3466 20.0709 15.0554 20.0709H17.1022V18.0242C17.1022 17.3154 16.5256 16.7389 15.8169 16.7389H13.7701Z" fill="url(#paint2_linear_145_239)"/>
<defs>
<filter id="filter0_b_145_239" x="3.24092" y="6.24092" width="19.5182" height="20.5182" filterUnits="userSpaceOnUse" color-interpolation-filters="sRGB">
<feFlood flood-opacity="0" result="BackgroundImageFix"/>
<feGaussianBlur in="BackgroundImageFix" stdDeviation="0.811884"/>
<feComposite in2="SourceAlpha" operator="in" result="effect1_backgroundBlur_145_239"/>
<feBlend mode="normal" in="SourceGraphic" in2="effect1_backgroundBlur_145_239" result="shape"/>
</filter>
<linearGradient id="paint0_linear_145_239" x1="20.5" y1="25" x2="20.5" y2="15" gradientUnits="userSpaceOnUse">
<stop stop-color="#0538FF"/>
<stop offset="1" stop-color="#5799F7"/>
</linearGradient>
<linearGradient id="paint1_linear_145_239" x1="20.4" y1="23.64" x2="3.20304" y2="18.0971" gradientUnits="userSpaceOnUse">
<stop stop-color="#97ACFF" stop-opacity="0.34"/>
<stop offset="1" stop-color="#BDD9FF" stop-opacity="0.72"/>
</linearGradient>
<linearGradient id="paint2_linear_145_239" x1="12.8725" y1="11" x2="17.5" y2="19.5" gradientUnits="userSpaceOnUse">
<stop stop-color="#2C66FC"/>
<stop offset="1" stop-color="white"/>
</linearGradient>
</defs>
</svg>
