<svg width="30" height="30" viewBox="0 0 30 30" fill="none" xmlns="http://www.w3.org/2000/svg">
<path d="M13.6695 20.6102L9.31623 22.0613C8.6687 22.2771 8 21.7951 8 21.1126V12.7208C8 12.2903 8.27543 11.9082 8.68377 11.7721L13.757 10.081C13.9164 10.0279 14.0867 10.0158 14.2521 10.0458L19.2768 10.9594C19.4237 10.9861 19.5748 10.9796 19.7188 10.9403L23.7369 9.84449C24.373 9.67099 25 10.1499 25 10.8092V19.7996C25 20.2201 24.7369 20.5957 24.3417 20.7394L19.8417 22.3757C19.621 22.456 19.379 22.456 19.1583 22.3757L14.3274 20.6191C14.1154 20.542 13.8835 20.5388 13.6695 20.6102Z" fill="url(#paint0_linear_145_133)"/>
<g filter="url(#filter0_b_145_133)">
<path d="M11.6695 17.1102L7.31623 18.5613C6.6687 18.7771 6 18.2951 6 17.6126V9.22076C6 8.79033 6.27543 8.40819 6.68377 8.27208L11.757 6.58102C11.9164 6.52786 12.0867 6.51576 12.2521 6.54583L17.2768 7.45942C17.4237 7.48614 17.5748 7.47961 17.7188 7.44032L21.7369 6.34449C22.373 6.17099 23 6.64988 23 7.30925V16.2996C23 16.7201 22.7369 17.0957 22.3417 17.2394L17.8417 18.8757C17.621 18.956 17.379 18.956 17.1583 18.8757L12.3274 17.1191C12.1154 17.042 11.8835 17.0388 11.6695 17.1102Z" fill="url(#paint1_linear_145_133)" fill-opacity="0.7"/>
<path d="M11.6695 17.1102L7.31623 18.5613C6.6687 18.7771 6 18.2951 6 17.6126V9.22076C6 8.79033 6.27543 8.40819 6.68377 8.27208L11.757 6.58102C11.9164 6.52786 12.0867 6.51576 12.2521 6.54583L17.2768 7.45942C17.4237 7.48614 17.5748 7.47961 17.7188 7.44032L21.7369 6.34449C22.373 6.17099 23 6.64988 23 7.30925V16.2996C23 16.7201 22.7369 17.0957 22.3417 17.2394L17.8417 18.8757C17.621 18.956 17.379 18.956 17.1583 18.8757L12.3274 17.1191C12.1154 17.042 11.8835 17.0388 11.6695 17.1102Z" stroke="white" stroke-width="0.25"/>
</g>
<path fill-rule="evenodd" clip-rule="evenodd" d="M14.7578 11L16.9553 7.47699C18.1695 5.53032 18.0406 2.70149 15.8174 2.13487C15.1386 1.96187 14.4104 1.93929 13.6697 2.16169C11.6735 2.76106 11.6441 5.38406 12.6547 7.20685L14.7578 11ZM14.9931 5.99999C15.5454 5.99999 15.9931 5.55228 15.9931 4.99999C15.9931 4.44771 15.5454 3.99999 14.9931 3.99999C14.4408 3.99999 13.9931 4.44771 13.9931 4.99999C13.9931 5.55228 14.4408 5.99999 14.9931 5.99999Z" fill="url(#paint2_linear_145_133)"/>
<circle cx="14.5" cy="12.5" r="0.5" fill="white"/>
<defs>
<filter id="filter0_b_145_133" x="3.875" y="4.18362" width="21.25" height="16.8773" filterUnits="userSpaceOnUse" color-interpolation-filters="sRGB">
<feFlood flood-opacity="0" result="BackgroundImageFix"/>
<feGaussianBlur in="BackgroundImageFix" stdDeviation="1"/>
<feComposite in2="SourceAlpha" operator="in" result="effect1_backgroundBlur_145_133"/>
<feBlend mode="normal" in="SourceGraphic" in2="effect1_backgroundBlur_145_133" result="shape"/>
</filter>
<linearGradient id="paint0_linear_145_133" x1="16.5" y1="22.5" x2="16.5" y2="9.5" gradientUnits="userSpaceOnUse">
<stop stop-color="#0538FF"/>
<stop offset="1" stop-color="#5799F7"/>
</linearGradient>
<linearGradient id="paint1_linear_145_133" x1="14.5" y1="19" x2="14.5" y2="6" gradientUnits="userSpaceOnUse">
<stop stop-color="#BBC9FF" stop-opacity="0.27"/>
<stop offset="1" stop-color="#B8D5FF" stop-opacity="0.7"/>
</linearGradient>
<linearGradient id="paint2_linear_145_133" x1="11" y1="1.5" x2="16" y2="7" gradientUnits="userSpaceOnUse">
<stop stop-color="#164DFE"/>
<stop offset="1" stop-color="#F9FAFF"/>
</linearGradient>
</defs>
</svg>
