<svg width="30" height="30" viewBox="0 0 30 30" fill="none" xmlns="http://www.w3.org/2000/svg">
<rect x="16" y="13" width="9" height="9" rx="1" fill="url(#paint0_linear_145_125)"/>
<g filter="url(#filter0_b_145_125)">
<rect x="5" y="6" width="16" height="17" rx="2" fill="url(#paint1_linear_145_125)" fill-opacity="0.7"/>
<rect x="5" y="6" width="16" height="17" rx="2" stroke="white" stroke-width="0.270628"/>
</g>
<path fill-rule="evenodd" clip-rule="evenodd" d="M10.9146 12C10.7087 12.5826 10.1531 13 9.5 13C8.67157 13 8 12.3284 8 11.5C8 10.6716 8.67157 10 9.5 10C10.1531 10 10.7087 10.4174 10.9146 11H15.5C15.7761 11 16 11.2239 16 11.5C16 11.7761 15.7761 12 15.5 12H10.9146Z" fill="url(#paint2_linear_145_125)"/>
<path fill-rule="evenodd" clip-rule="evenodd" d="M14.0854 17C14.2913 17.5826 14.8469 18 15.5 18C16.3284 18 17 17.3284 17 16.5C17 15.6716 16.3284 15 15.5 15C14.8469 15 14.2913 15.4174 14.0854 16H9.5C9.22386 16 9 16.2239 9 16.5C9 16.7761 9.22386 17 9.5 17H14.0854Z" fill="url(#paint3_linear_145_125)"/>
<defs>
<filter id="filter0_b_145_125" x="3.24092" y="4.24092" width="19.5182" height="20.5182" filterUnits="userSpaceOnUse" color-interpolation-filters="sRGB">
<feFlood flood-opacity="0" result="BackgroundImageFix"/>
<feGaussianBlur in="BackgroundImageFix" stdDeviation="0.811884"/>
<feComposite in2="SourceAlpha" operator="in" result="effect1_backgroundBlur_145_125"/>
<feBlend mode="normal" in="SourceGraphic" in2="effect1_backgroundBlur_145_125" result="shape"/>
</filter>
<linearGradient id="paint0_linear_145_125" x1="20.5" y1="22" x2="20.5" y2="13" gradientUnits="userSpaceOnUse">
<stop stop-color="#0538FF"/>
<stop offset="1" stop-color="#5799F7"/>
</linearGradient>
<linearGradient id="paint1_linear_145_125" x1="20.4" y1="21.64" x2="3.20304" y2="16.0971" gradientUnits="userSpaceOnUse">
<stop stop-color="#97ACFF" stop-opacity="0.34"/>
<stop offset="1" stop-color="#BDD9FF" stop-opacity="0.72"/>
</linearGradient>
<linearGradient id="paint2_linear_145_125" x1="9.5" y1="10.5" x2="13" y2="13" gradientUnits="userSpaceOnUse">
<stop stop-color="#2761FC"/>
<stop offset="1" stop-color="white"/>
</linearGradient>
<linearGradient id="paint3_linear_145_125" x1="15.5" y1="15.5" x2="12" y2="18" gradientUnits="userSpaceOnUse">
<stop stop-color="#2761FC"/>
<stop offset="1" stop-color="white"/>
</linearGradient>
</defs>
</svg>
