<svg width="30" height="30" viewBox="0 0 30 30" fill="none" xmlns="http://www.w3.org/2000/svg">
<path fill-rule="evenodd" clip-rule="evenodd" d="M19.2485 10.5257C19.9371 11.3515 20.398 12.3737 20.5351 13.496H23.0373V16.4632H20.1136C19.8761 17.0158 19.5543 17.5236 19.1643 17.9705L20.6585 19.7512L18.3856 21.6585L16.6866 19.6338C16.1067 19.831 15.4851 19.9379 14.8385 19.9379C14.3889 19.9379 13.9514 19.8862 13.5315 19.7884L12.2547 22L9.68503 20.5164L10.9145 18.3869C10.3412 17.8494 9.87823 17.1957 9.56339 16.4632H7.45963V13.496H9.14198C9.29985 12.2029 9.88779 11.0427 10.7584 10.1626L9.68501 8.30346L12.2547 6.81987L13.3188 8.66299C13.8028 8.53041 14.3124 8.45962 14.8385 8.45962C15.5326 8.45962 16.1979 8.58283 16.8137 8.80856L17.9619 6.81987L20.5315 8.30346L19.2485 10.5257ZM14.8385 11.7391C13.4801 11.7391 12.3789 12.8403 12.3789 14.1988C12.3789 15.5572 13.4801 16.6584 14.8385 16.6584C16.1969 16.6584 17.2981 15.5572 17.2981 14.1988C17.2981 12.8403 16.1969 11.7391 14.8385 11.7391Z" fill="#306BFC"/>
<g filter="url(#filter0_b_145_209)">
<mask id="path-2-inside-1_145_209" fill="white">
<path fill-rule="evenodd" clip-rule="evenodd" d="M16.7155 9.63005C17.5629 10.4305 18.1658 11.4872 18.4003 12.6761H20.5777V15.6433H18.2011C17.9099 16.4932 17.4242 17.2528 16.7971 17.8689L18.0817 19.3999L15.8088 21.3071L14.1606 19.3429C13.7211 19.4511 13.2617 19.5084 12.7888 19.5084C12.1407 19.5084 11.5179 19.4007 10.9371 19.202L9.79505 21.1801L7.2254 19.6965L8.47068 17.5397C7.99256 16.9897 7.61776 16.3475 7.37654 15.6433H5V12.6761H7.17736C7.38788 11.6084 7.89553 10.6474 8.6106 9.88284L7.22539 7.48359L9.79503 6L11.1306 8.31328C11.6554 8.15455 12.2122 8.06922 12.7888 8.06922C13.241 8.06922 13.6809 8.12169 14.1029 8.22089L15.3851 6L17.9547 7.48359L16.7155 9.63005ZM12.7888 11.3487C11.4412 11.3487 10.3487 12.4412 10.3487 13.7888C10.3487 15.1365 11.4412 16.2289 12.7888 16.2289C14.1364 16.2289 15.2289 15.1365 15.2289 13.7888C15.2289 12.4412 14.1364 11.3487 12.7888 11.3487Z"/>
</mask>
<path fill-rule="evenodd" clip-rule="evenodd" d="M16.7155 9.63005C17.5629 10.4305 18.1658 11.4872 18.4003 12.6761H20.5777V15.6433H18.2011C17.9099 16.4932 17.4242 17.2528 16.7971 17.8689L18.0817 19.3999L15.8088 21.3071L14.1606 19.3429C13.7211 19.4511 13.2617 19.5084 12.7888 19.5084C12.1407 19.5084 11.5179 19.4007 10.9371 19.202L9.79505 21.1801L7.2254 19.6965L8.47068 17.5397C7.99256 16.9897 7.61776 16.3475 7.37654 15.6433H5V12.6761H7.17736C7.38788 11.6084 7.89553 10.6474 8.6106 9.88284L7.22539 7.48359L9.79503 6L11.1306 8.31328C11.6554 8.15455 12.2122 8.06922 12.7888 8.06922C13.241 8.06922 13.6809 8.12169 14.1029 8.22089L15.3851 6L17.9547 7.48359L16.7155 9.63005ZM12.7888 11.3487C11.4412 11.3487 10.3487 12.4412 10.3487 13.7888C10.3487 15.1365 11.4412 16.2289 12.7888 16.2289C14.1364 16.2289 15.2289 15.1365 15.2289 13.7888C15.2289 12.4412 14.1364 11.3487 12.7888 11.3487Z" fill="url(#paint0_linear_145_209)" fill-opacity="0.7"/>
<path d="M18.4003 12.6761L18.1992 12.7158L18.2318 12.8811H18.4003V12.6761ZM16.7155 9.63005L16.538 9.52756L16.457 9.66784L16.5747 9.77906L16.7155 9.63005ZM20.5777 12.6761H20.7826V12.4712H20.5777V12.6761ZM20.5777 15.6433V15.8483H20.7826V15.6433H20.5777ZM18.2011 15.6433V15.4383H18.0546L18.0072 15.5769L18.2011 15.6433ZM16.7971 17.8689L16.6535 17.7227L16.5183 17.8555L16.6401 18.0007L16.7971 17.8689ZM18.0817 19.3999L18.2135 19.5569L18.3705 19.4251L18.2388 19.2681L18.0817 19.3999ZM15.8088 21.3071L15.6517 21.4389L15.7835 21.5959L15.9405 21.4642L15.8088 21.3071ZM14.1606 19.3429L14.3176 19.2111L14.2355 19.1134L14.1116 19.1439L14.1606 19.3429ZM10.9371 19.202L11.0034 19.0081L10.8439 18.9535L10.7596 19.0996L10.9371 19.202ZM9.79505 21.1801L9.69256 21.3576L9.87007 21.4601L9.97256 21.2826L9.79505 21.1801ZM7.2254 19.6965L7.04789 19.5941L6.94541 19.7716L7.12292 19.8741L7.2254 19.6965ZM8.47068 17.5397L8.64819 17.6421L8.7213 17.5155L8.62537 17.4052L8.47068 17.5397ZM7.37654 15.6433L7.57044 15.5769L7.52298 15.4383H7.37654V15.6433ZM5 15.6433H4.79503V15.8483H5V15.6433ZM5 12.6761V12.4712H4.79503V12.6761H5ZM7.17736 12.6761V12.8811H7.34586L7.37846 12.7158L7.17736 12.6761ZM8.6106 9.88284L8.7603 10.0228L8.86406 9.91191L8.78811 9.78036L8.6106 9.88284ZM7.22539 7.48359L7.1229 7.30608L6.94539 7.40857L7.04788 7.58607L7.22539 7.48359ZM9.79503 6L9.97254 5.89752L9.87006 5.72001L9.69255 5.8225L9.79503 6ZM11.1306 8.31328L10.9531 8.41577L11.0344 8.55653L11.1899 8.50948L11.1306 8.31328ZM14.1029 8.22089L14.0559 8.42042L14.2042 8.45527L14.2804 8.32337L14.1029 8.22089ZM15.3851 6L15.4876 5.82249L15.3101 5.72001L15.2076 5.89752L15.3851 6ZM17.9547 7.48359L18.1322 7.58607L18.2347 7.40856L18.0572 7.30608L17.9547 7.48359ZM18.6014 12.6365C18.3584 11.4044 17.7338 10.3099 16.8562 9.48104L16.5747 9.77906C17.3921 10.5511 17.9732 11.5699 18.1992 12.7158L18.6014 12.6365ZM20.5777 12.4712H18.4003V12.8811H20.5777V12.4712ZM20.7826 15.6433V12.6761H20.3727V15.6433H20.7826ZM18.2011 15.8483H20.5777V15.4383H18.2011V15.8483ZM16.9408 18.0151C17.5902 17.3771 18.0933 16.5904 18.395 15.7097L18.0072 15.5769C17.7266 16.3961 17.2583 17.1285 16.6535 17.7227L16.9408 18.0151ZM18.2388 19.2681L16.9541 17.7372L16.6401 18.0007L17.9247 19.5316L18.2388 19.2681ZM15.9405 21.4642L18.2135 19.5569L17.95 19.2429L15.677 21.1501L15.9405 21.4642ZM14.0035 19.4746L15.6517 21.4389L15.9658 21.1754L14.3176 19.2111L14.0035 19.4746ZM12.7888 19.7134C13.2783 19.7134 13.7542 19.654 14.2095 19.5419L14.1116 19.1439C13.688 19.2481 13.245 19.3035 12.7888 19.3035V19.7134ZM10.8708 19.396C11.4726 19.6018 12.1179 19.7134 12.7888 19.7134V19.3035C12.1636 19.3035 11.5631 19.1995 11.0034 19.0081L10.8708 19.396ZM9.97256 21.2826L11.1146 19.3045L10.7596 19.0996L9.61754 21.0776L9.97256 21.2826ZM7.12292 19.8741L9.69256 21.3576L9.89753 21.0026L7.32789 19.519L7.12292 19.8741ZM8.29317 17.4372L7.04789 19.5941L7.40291 19.799L8.64819 17.6421L8.29317 17.4372ZM7.18263 15.7097C7.43258 16.4394 7.82085 17.1046 8.316 17.6741L8.62537 17.4052C8.16426 16.8748 7.80295 16.2556 7.57044 15.5769L7.18263 15.7097ZM7.37654 15.4383H5V15.8483H7.37654V15.4383ZM5.20497 15.6433V12.6761H4.79503V15.6433H5.20497ZM5 12.8811H7.17736V12.4712H5V12.8811ZM8.4609 9.74284C7.7204 10.5346 7.19441 11.5301 6.97627 12.6365L7.37846 12.7158C7.58136 11.6867 8.07066 10.7602 8.7603 10.0228L8.4609 9.74284ZM7.04788 7.58607L8.43309 9.98533L8.78811 9.78036L7.4029 7.38111L7.04788 7.58607ZM9.69255 5.8225L7.1229 7.30608L7.32787 7.6611L9.89752 6.17751L9.69255 5.8225ZM11.3081 8.2108L9.97254 5.89752L9.61752 6.10249L10.9531 8.41577L11.3081 8.2108ZM12.7888 7.86425C12.1918 7.86425 11.6151 7.95261 11.0713 8.11709L11.1899 8.50948C11.6958 8.3565 12.2325 8.27419 12.7888 8.27419V7.86425ZM14.1498 8.02136C13.7126 7.91858 13.2569 7.86425 12.7888 7.86425V8.27419C13.2251 8.27419 13.6493 8.32481 14.0559 8.42042L14.1498 8.02136ZM15.2076 5.89752L13.9253 8.1184L14.2804 8.32337L15.5626 6.10248L15.2076 5.89752ZM18.0572 7.30608L15.4876 5.82249L15.2826 6.17751L17.8522 7.66109L18.0572 7.30608ZM16.893 9.73253L18.1322 7.58607L17.7772 7.3811L16.538 9.52756L16.893 9.73253ZM10.5537 13.7888C10.5537 12.5544 11.5544 11.5537 12.7888 11.5537V11.1438C11.328 11.1438 10.1437 12.328 10.1437 13.7888H10.5537ZM12.7888 16.024C11.5544 16.024 10.5537 15.0233 10.5537 13.7888H10.1437C10.1437 15.2497 11.328 16.4339 12.7888 16.4339V16.024ZM15.0239 13.7888C15.0239 15.0233 14.0232 16.024 12.7888 16.024V16.4339C14.2496 16.4339 15.4339 15.2497 15.4339 13.7888H15.0239ZM12.7888 11.5537C14.0232 11.5537 15.0239 12.5544 15.0239 13.7888H15.4339C15.4339 12.328 14.2496 11.1438 12.7888 11.1438V11.5537Z" fill="white" mask="url(#path-2-inside-1_145_209)"/>
</g>
<defs>
<filter id="filter0_b_145_209" x="1.7205" y="2.7205" width="22.1367" height="21.8662" filterUnits="userSpaceOnUse" color-interpolation-filters="sRGB">
<feFlood flood-opacity="0" result="BackgroundImageFix"/>
<feGaussianBlur in="BackgroundImageFix" stdDeviation="1.63975"/>
<feComposite in2="SourceAlpha" operator="in" result="effect1_backgroundBlur_145_209"/>
<feBlend mode="normal" in="SourceGraphic" in2="effect1_backgroundBlur_145_209" result="shape"/>
</filter>
<linearGradient id="paint0_linear_145_209" x1="12.7888" y1="6" x2="12.7888" y2="21.3071" gradientUnits="userSpaceOnUse">
<stop stop-color="#ACC4FF" stop-opacity="0.27"/>
<stop offset="1" stop-color="#B4CAFF" stop-opacity="0.75"/>
</linearGradient>
</defs>
</svg>
