<svg width="30" height="30" viewBox="0 0 30 30" fill="none" xmlns="http://www.w3.org/2000/svg">
<rect x="13" y="14" width="11" height="10" rx="1" fill="url(#paint0_linear_145_226)"/>
<g filter="url(#filter0_b_145_226)">
<rect x="5" y="7" width="16" height="17" rx="2" fill="url(#paint1_linear_145_226)" fill-opacity="0.7"/>
<rect x="5" y="7" width="16" height="17" rx="2" stroke="white" stroke-width="0.270628"/>
</g>
<path d="M10.707 12.9134H12.577C12.7565 12.9134 12.9026 12.7673 12.9026 12.5878C12.9026 12.4082 12.7565 12.2621 12.577 12.2621H10.707C10.5274 12.2621 10.3814 12.4082 10.3814 12.5878C10.3814 12.7673 10.5274 12.9134 10.707 12.9134ZM15.7169 13.7888H10.707C10.5274 13.7888 10.3814 13.9349 10.3814 14.1145C10.3814 14.294 10.5274 14.4401 10.707 14.4401H15.7169C15.8964 14.4401 16.0425 14.294 16.0425 14.1145C16.0425 13.9349 15.8964 13.7888 15.7169 13.7888Z" fill="url(#paint2_linear_145_226)"/>
<path d="M9.47633 16.1634H12.8386V16.743H10.5509C10.3713 16.743 10.2253 16.8891 10.2253 17.0686C10.2253 17.2482 10.3713 17.3942 10.5509 17.3942H15.8343C16.0138 17.3942 16.1599 17.2482 16.1599 17.0686C16.1599 16.8891 16.0138 16.743 15.8343 16.743H13.4898V16.1634H16.866C17.1172 16.1634 17.321 15.9587 17.321 15.7085V11.4549C17.321 11.2037 17.1163 11 16.866 11H9.47633C9.22514 11 9.0214 11.2047 9.0214 11.4549V15.7085C9.0214 15.9597 9.22514 16.1634 9.47633 16.1634ZM9.67264 11.6512H16.6707V15.5122H9.67264V11.6512ZM17.0037 17.7385H9.36842C9.16467 17.7385 9 17.9041 9 18.1069V19H9.65124V18.3897H16.7209V18.9972H17.3721V18.1078C17.3721 17.9031 17.2065 17.7385 17.0037 17.7385Z" fill="url(#paint3_linear_145_226)"/>
<defs>
<filter id="filter0_b_145_226" x="3.24092" y="5.24092" width="19.5182" height="20.5182" filterUnits="userSpaceOnUse" color-interpolation-filters="sRGB">
<feFlood flood-opacity="0" result="BackgroundImageFix"/>
<feGaussianBlur in="BackgroundImageFix" stdDeviation="0.811884"/>
<feComposite in2="SourceAlpha" operator="in" result="effect1_backgroundBlur_145_226"/>
<feBlend mode="normal" in="SourceGraphic" in2="effect1_backgroundBlur_145_226" result="shape"/>
</filter>
<linearGradient id="paint0_linear_145_226" x1="18.5" y1="24" x2="18.5" y2="14" gradientUnits="userSpaceOnUse">
<stop stop-color="#0538FF"/>
<stop offset="1" stop-color="#5799F7"/>
</linearGradient>
<linearGradient id="paint1_linear_145_226" x1="20.4" y1="22.64" x2="3.20304" y2="17.0971" gradientUnits="userSpaceOnUse">
<stop stop-color="#97ACFF" stop-opacity="0.34"/>
<stop offset="1" stop-color="#BDD9FF" stop-opacity="0.72"/>
</linearGradient>
<linearGradient id="paint2_linear_145_226" x1="11.5" y1="12.5" x2="14" y2="14.5" gradientUnits="userSpaceOnUse">
<stop stop-color="#7297FF"/>
<stop offset="1" stop-color="#7297FF" stop-opacity="0"/>
</linearGradient>
<linearGradient id="paint3_linear_145_226" x1="10" y1="11" x2="14" y2="18" gradientUnits="userSpaceOnUse">
<stop stop-color="#2860FC"/>
<stop offset="1" stop-color="white"/>
</linearGradient>
</defs>
</svg>
